<svg xmlns="http://www.w3.org/2000/svg" xmlns:svg="http://www.w3.org/2000/svg" xmlns:xlink="http://www.w3.org/1999/xlink" id="svg2" width="576.169" height="701.544" version="1.1"><defs id="defs4"><marker id="DotM" orient="auto" refX="0" refY="0" style="overflow:visible"><path id="path3826" d="m -2.5,-1 c 0,2.76 -2.24,5 -5,5 -2.76,0 -5,-2.24 -5,-5 0,-2.76 2.24,-5 5,-5 2.76,0 5,2.24 5,5 z" transform="matrix(0.4,0,0,0.4,2.96,0.4)" style="fill-rule:evenodd;stroke:#000;stroke-width:1pt;marker-start:none;marker-end:none"/></marker><marker id="Arrow2Lend" orient="auto" refX="0" refY="0" style="overflow:visible"><path id="path3782" d="M 8.7185878,4.0337352 -2.2072895,0.01601326 8.7185884,-4.0017078 c -1.7454984,2.3720609 -1.7354408,5.6174519 -6e-7,8.035443 z" transform="matrix(-1.1,0,0,-1.1,-1.1,0)" style="font-size:12px;fill-rule:evenodd;stroke-width:.625;stroke-linejoin:round"/></marker><marker id="Arrow1Lend" orient="auto" refX="0" refY="0" style="overflow:visible"><path id="path3764" d="M 0,0 5,-5 -12.5,0 5,5 0,0 z" transform="matrix(-0.8,0,0,-0.8,-10,0)" style="fill-rule:evenodd;stroke:#000;stroke-width:1pt;marker-start:none"/></marker><marker id="DotL" orient="auto" refX="0" refY="0" style="overflow:visible"><path id="path3823" d="m -2.5,-1 c 0,2.76 -2.24,5 -5,5 -2.76,0 -5,-2.24 -5,-5 0,-2.76 2.24,-5 5,-5 2.76,0 5,2.24 5,5 z" transform="matrix(0.8,0,0,0.8,5.92,0.8)" style="fill-rule:evenodd;stroke:#000;stroke-width:1pt;marker-start:none;marker-end:none"/></marker><marker id="Arrow2Lend-0" orient="auto" refX="0" refY="0" style="overflow:visible"><path id="path3782-5" d="M 8.7185878,4.0337352 -2.2072895,0.01601326 8.7185884,-4.0017078 c -1.7454984,2.3720609 -1.7354408,5.6174519 -6e-7,8.035443 z" transform="matrix(-1.1,0,0,-1.1,-1.1,0)" style="font-size:12px;fill-rule:evenodd;stroke-width:.625;stroke-linejoin:round"/></marker><marker id="Arrow2Lend-9" orient="auto" refX="0" refY="0" style="overflow:visible"><path id="path3782-7" d="M 8.7185878,4.0337352 -2.2072895,0.01601326 8.7185884,-4.0017078 c -1.7454984,2.3720609 -1.7354408,5.6174519 -6e-7,8.035443 z" transform="matrix(-1.1,0,0,-1.1,-1.1,0)" style="font-size:12px;fill-rule:evenodd;stroke-width:.625;stroke-linejoin:round"/></marker></defs><metadata id="metadata7"/><g id="layer1" transform="translate(-102.54064,-246.81723)"><image id="image2889" width="49.739" height="36.506" x="394.937" y="906.924" xlink:href="file:///media/ALMACENAMIENTO/Trabajo/Papers/REPORTS/TECHREP_Geometry3D/imgs/inkscape_pasted_image_20100831_162931.png"/><image id="image2903" width="98.565" height="42.438" x="580.145" y="335.416" xlink:href="file:///media/ALMACENAMIENTO/Trabajo/Papers/REPORTS/TECHREP_Geometry3D/imgs/inkscape_pasted_image_20100831_162943.png"/><image id="image2917" width="137.352" height="41.981" x="458.774" y="715.097" xlink:href="file:///media/ALMACENAMIENTO/Trabajo/Papers/REPORTS/TECHREP_Geometry3D/imgs/inkscape_pasted_image_20100831_162952.png"/><image id="image2931" width="49.739" height="30.573" x="237.851" y="246.817" xlink:href="imgs/./inkscape_pasted_image_20100831_162958.png"/><g id="g3732"><path id="path2823" d="m 320.21836,947.30632 c 0,0 33.2519,-13.48965 46.46701,-30.30458 13.21511,-16.81493 17.75055,-40.17497 24.24366,-68.69037 6.49311,-28.5154 -0.99331,-61.54304 11.11168,-102.02541 12.10499,-40.48237 39.92328,-101.36858 62.12439,-133.84521 22.2011,-32.47663 45.18674,-52.4017 64.64976,-69.19545 19.46302,-16.79375 21.98415,-20.14044 48.99239,-33.84011" style="fill:none;stroke:#000;stroke-width:2;stroke-linecap:butt;stroke-linejoin:miter;stroke-miterlimit:4;stroke-opacity:1;stroke-dasharray:none"/><path id="path2823-7" d="m 103.54064,758.15526 c 0,0 33.2519,-13.48965 46.46701,-30.30458 13.21511,-16.81493 17.75055,-40.17497 24.24366,-68.69037 6.49311,-28.5154 -0.99331,-61.54304 11.11168,-102.02541 12.10499,-40.48237 39.92328,-101.36858 62.12439,-133.84521 22.2011,-32.47663 45.18674,-52.4017 64.64976,-69.19545 19.46302,-16.79375 21.98415,-20.14044 48.99239,-33.84011" style="fill:none;stroke:#000;stroke-width:2;stroke-linecap:butt;stroke-linejoin:miter;stroke-miterlimit:4;stroke-opacity:1;stroke-dasharray:none"/><path id="path2860" d="M 103.57221,757.83958 320.71554,947.36156" style="fill:none;stroke:#000;stroke-width:2;stroke-linecap:butt;stroke-linejoin:miter;stroke-miterlimit:4;stroke-opacity:1;stroke-dasharray:none"/><path id="path2860-7" d="M 360.49083,320.19048 577.63416,509.71246" style="fill:none;stroke:#000;stroke-width:2;stroke-linecap:butt;stroke-linejoin:miter;stroke-miterlimit:4;stroke-opacity:1;stroke-dasharray:none"/></g><path style="fill:none;stroke:#000;stroke-width:.69999999;stroke-linecap:butt;stroke-linejoin:miter;stroke-miterlimit:4;stroke-opacity:1;stroke-dasharray:5.5999999,5.5999999;stroke-dashoffset:.69999999" id="path2823-3" d="m 192.63413,837.02704 c 0,0 33.2519,-13.48965 46.46701,-30.30458 13.21511,-16.81493 17.75055,-40.17497 24.24366,-68.69037 6.49311,-28.5154 -0.99331,-61.54304 11.11168,-102.02541 12.10499,-40.48237 39.92328,-101.36858 62.12439,-133.84521 22.2011,-32.47663 45.18674,-52.4017 64.64976,-69.19545 19.46302,-16.79375 21.98415,-20.14044 48.99239,-33.84011"/><path style="fill:none;stroke:#000;stroke-width:.69999999;stroke-linecap:butt;stroke-linejoin:miter;stroke-miterlimit:4;stroke-opacity:1;stroke-dasharray:5.6,5.6;stroke-dashoffset:0" id="path2860-7-2" d="m 249.99977,419.02976 c 0,0 24.15506,37.87796 39.63862,53.94649 31.538,32.72948 69.75418,58.44165 106.81377,84.75614 24.03518,17.06639 45.84439,22.0712 74.73155,47.28382"/><path style="fill:none;stroke:#000;stroke-width:.69999999;stroke-linecap:butt;stroke-linejoin:miter;stroke-miterlimit:4;stroke-opacity:1;stroke-dasharray:5.6,5.6;stroke-dashoffset:0" id="path3746" d="m 329.23872,508.93958 c 0,0.16998 -0.1378,0.30778 -0.30778,0.30778 -0.16998,0 -0.30778,-0.1378 -0.30778,-0.30778 0,-0.16999 0.1378,-0.30779 0.30778,-0.30779 0.16998,0 0.30778,0.1378 0.30778,0.30779 z" transform="matrix(7.1248396,0,0,7.1248396,-2012.5062,-3115.566)"/><path style="fill:none;stroke:#000;stroke-width:1;stroke-linecap:round;stroke-linejoin:miter;stroke-miterlimit:4;stroke-opacity:1;stroke-dasharray:none;marker-end:url(#DotL)" id="path3748" d="M 390.92903,932.15403 325.26912,900.8393"/><path style="fill:none;stroke:#000;stroke-width:.97736937;stroke-linecap:round;stroke-linejoin:miter;stroke-miterlimit:4;stroke-opacity:1;stroke-dasharray:none;marker-end:url(#Arrow1Lend)" id="path3750" d="M 462.86846,714.51636 C 334.44771,516.89655 334.44771,516.89655 334.44771,516.89655"/><path style="fill:none;stroke:#000;stroke-width:1;stroke-linecap:round;stroke-linejoin:miter;stroke-miterlimit:4;stroke-opacity:1;stroke-dasharray:none;marker-end:url(#DotL)" id="path3752" d="m 577.14286,368.07647 -128.57143,105"/><path style="fill:none;stroke:#000;stroke-width:1.11900914;stroke-linecap:round;stroke-linejoin:miter;stroke-miterlimit:4;stroke-opacity:1;stroke-dasharray:none;marker-end:url(#DotM)" id="path3754" d="M 267.91665,279.56454 360.302,466.42252"/><path style="fill:none;stroke:#000;stroke-width:.74276638;stroke-linecap:round;stroke-linejoin:miter;stroke-miterlimit:4;stroke-opacity:1;stroke-dasharray:none;marker-end:url(#DotM)" id="path3756" d="m 264.87139,282.23358 28.12266,196.37534"/><path style="fill:none;stroke:#000;stroke-width:1.5;stroke-linecap:round;stroke-linejoin:miter;stroke-miterlimit:4;stroke-opacity:1;stroke-dasharray:none;marker-end:url(#Arrow2Lend)" id="path4394" d="M 331.33004,509.91027 377.54451,443.2402"/><path style="fill:none;stroke:#000;stroke-width:1.45211065;stroke-linecap:round;stroke-linejoin:miter;stroke-miterlimit:4;stroke-opacity:1;stroke-dasharray:none;marker-end:url(#Arrow2Lend)" id="path4396" d="m 329.83876,510.18675 -54.09011,-46.4985"/><path style="fill:none;stroke:#000;stroke-width:.89999998;stroke-linecap:round;stroke-linejoin:miter;stroke-miterlimit:4;stroke-opacity:1;stroke-dasharray:none;marker-end:none" id="path4396-1" d="M 327.91766,680.32339 189.44245,561.28334"/><path style="fill:none;stroke:#000;stroke-width:.89999998;stroke-linecap:round;stroke-linejoin:miter;stroke-miterlimit:4;stroke-opacity:1;stroke-dasharray:none;marker-end:none" id="path4394-0" d="M 256.31331,618.59539 403.66714,406.01933"/><path style="fill:none;stroke:#000;stroke-width:.89999998;stroke-linecap:round;stroke-linejoin:miter;stroke-miterlimit:4;stroke-opacity:1;stroke-dasharray:none;marker-end:none" id="path4396-1-9" d="M 402.84048,572.83955 264.36527,453.7995"/><path style="fill:none;stroke:#000;stroke-width:.89999998;stroke-linecap:round;stroke-linejoin:miter;stroke-miterlimit:4;stroke-opacity:1;stroke-dasharray:none;marker-end:none" id="path4394-0-3" d="M 189.46783,561.14499 336.82166,348.56893"/><path style="fill:none;stroke:#000;stroke-width:.89999998;stroke-linecap:round;stroke-linejoin:miter;stroke-miterlimit:4;stroke-opacity:1;stroke-dasharray:none;marker-end:none" id="path4396-1-2" d="M 475.30903,467.50721 336.83382,348.46716"/><path style="fill:none;stroke:#000;stroke-width:.89999998;stroke-linecap:round;stroke-linejoin:miter;stroke-miterlimit:4;stroke-opacity:1;stroke-dasharray:none;marker-end:none" id="path4394-0-3-5" d="M 328.1088,680.25735 475.46263,467.68129"/></g></svg>